<?xml version="1.0" encoding="UTF-8" standalone="no"?>
<!-- Created with Inkscape (http://www.inkscape.org/) -->

<svg
   width="210mm"
   height="297mm"
   viewBox="0 0 210 297"
   version="1.1"
   id="svg299"
   inkscape:version="1.2.2 (b0a84865, 2022-12-01)"
   sodipodi:docname="tarottaletitile.svg"
   xmlns:inkscape="http://www.inkscape.org/namespaces/inkscape"
   xmlns:sodipodi="http://sodipodi.sourceforge.net/DTD/sodipodi-0.dtd"
   xmlns="http://www.w3.org/2000/svg"
   xmlns:svg="http://www.w3.org/2000/svg">
  <sodipodi:namedview
     id="namedview301"
     pagecolor="#ffffff"
     bordercolor="#000000"
     borderopacity="0.25"
     inkscape:showpageshadow="2"
     inkscape:pageopacity="0.0"
     inkscape:pagecheckerboard="0"
     inkscape:deskcolor="#d1d1d1"
     inkscape:document-units="mm"
     showgrid="false"
     inkscape:zoom="0.59853616"
     inkscape:cx="351.69137"
     inkscape:cy="243.92845"
     inkscape:window-width="1440"
     inkscape:window-height="872"
     inkscape:window-x="0"
     inkscape:window-y="28"
     inkscape:window-maximized="0"
     inkscape:current-layer="layer1" />
  <defs
     id="defs296" />
  <g
     inkscape:label="Layer 1"
     inkscape:groupmode="layer"
     id="layer1">
    <g
       aria-label="T"
       id="text523"
       style="font-size:59.9722px;fill:#efcee2;stroke-width:0.264583">
      <path
         d="M 67.091669,57.873327 58.101696,87.44946 q -0.849216,2.781913 -0.849216,3.484713 0,1.464165 1.259182,2.137681 1.288465,0.644232 2.869763,0.644232 h 1.054199 l -0.409966,1.347032 H 45.012061 l 0.409966,-1.347032 h 0.878499 q 1.844848,0 3.133313,-0.614949 1.317748,-0.644233 1.844848,-1.552015 0.556383,-0.937066 1.522731,-4.041095 l 9.13639,-29.9861 q -4.861028,-0.439249 -8.257891,-0.439249 -3.689695,0 -5.534543,0.614949 -1.844848,0.614949 -1.844848,1.844848 0,0.468533 0.322116,1.317749 0.292833,0.819932 0.292833,1.229898 0,0.790649 -0.585666,1.376315 -0.556383,0.556383 -1.464165,0.556383 -1.142049,0 -1.786281,-0.878499 -0.614949,-0.878499 -0.614949,-1.961981 0,-2.342664 2.635497,-4.070379 2.66478,-1.756998 9.341372,-1.756998 3.426146,0 13.001785,0.790649 6.852293,0.585666 10.278439,0.585666 3.279729,0 3.631129,-1.727714 0.234266,-1.229899 1.229899,-1.229899 1.405598,0 1.405598,1.493448 0,3.19188 -6.764442,3.19188 -3.221163,0 -10.132022,-0.585666 z"
         style="font-style:italic;font-family:Baskerville;-inkscape-font-specification:'Baskerville, Italic'"
         id="path2764" />
    </g>
    <g
       aria-label="arot"
       id="text527"
       style="font-style:italic;font-size:26.4583px;font-family:Baskerville;-inkscape-font-specification:'Baskerville, Italic';fill:#efcee2;stroke-width:0.264583">
      <path
         d="m 76.73282,63.32571 h 1.550291 l -2.299598,7.570588 q -0.503845,1.640724 -0.503845,1.98954 0,0.258382 0.116272,0.400492 0.116272,0.129191 0.348815,0.129191 0.891418,0 2.054136,-2.041217 h 0.542602 q -0.503845,1.162718 -1.446939,2.118731 -0.930174,0.943094 -1.718239,0.943094 -0.607197,0 -0.930174,-0.452168 -0.322978,-0.452169 -0.322978,-1.111042 0,-0.529683 0.258382,-1.382343 -0.581359,0.99477 -1.692401,1.976621 -1.098123,0.968932 -2.067054,0.968932 -0.904337,0 -1.563211,-0.762227 -0.645954,-0.775145 -0.645954,-2.079973 0,-1.756997 1.007689,-3.759456 1.007689,-2.015378 2.622576,-3.358964 1.627805,-1.343585 2.777604,-1.343585 0.671793,0 1.059366,0.322977 0.400492,0.322977 0.529683,0.968932 z m -6.756685,8.655791 q 0,0.85266 0.258382,1.29191 0.258382,0.42633 0.775145,0.42633 0.85266,0 2.041217,-1.253152 1.201475,-1.253152 2.079974,-3.836971 0.878498,-2.583818 0.878498,-3.513992 0,-0.542602 -0.28422,-0.917256 -0.271301,-0.387573 -0.788065,-0.387573 -1.576129,0 -3.26853,3.113501 -1.692401,3.113501 -1.692401,5.077203 z"
         id="path2767" />
      <path
         d="m 79.923836,66.620078 h -0.56844 q 0.542601,-1.446938 1.356504,-2.467546 0.826822,-1.020608 1.627806,-1.020608 0.555521,0 0.826822,0.452168 0.2713,0.439249 0.2713,1.343585 0,1.123961 -0.581359,3.203935 0.07751,-0.129191 0.42633,-0.930175 0.956013,-2.157488 1.679482,-3.113501 0.723469,-0.956012 1.446939,-0.956012 0.452168,0 0.723469,0.28422 0.271301,0.28422 0.271301,0.684711 0,0.387573 -0.232544,0.633036 -0.219625,0.245463 -0.529683,0.245463 -0.348815,0 -0.71055,-0.42633 -0.14211,-0.167948 -0.28422,-0.167948 -0.645954,0 -1.98954,3.113501 -1.343585,3.100582 -2.170407,5.839429 l -0.28422,0.930175 h -1.550291 l 2.054135,-6.847119 q 0.581359,-1.963702 0.581359,-2.661333 0,-0.374653 -0.103352,-0.555521 -0.09043,-0.180867 -0.28422,-0.180867 -0.42633,0 -1.072285,0.917255 -0.633036,0.917256 -0.904336,1.679482 z"
         id="path2769" />
      <path
         d="m 87.042256,70.676673 q 0,-1.550291 0.723469,-3.371883 0.72347,-1.834511 2.067055,-2.971391 1.343586,-1.13688 2.609657,-1.13688 1.149799,0 1.886187,0.981851 0.749307,0.968932 0.749307,2.635495 0,2.015378 -0.826822,3.824051 -0.826821,1.808673 -2.079973,2.777605 -1.240233,0.956012 -2.441709,0.956012 -1.072284,0 -1.886187,-0.826822 -0.800984,-0.826821 -0.800984,-2.868038 z m 1.382343,1.485696 q 0,0.697631 0.361735,1.188556 0.361734,0.490926 0.99477,0.490926 1.731158,0 2.8422,-3.28145 1.123961,-3.281449 1.123961,-5.012607 0,-0.891418 -0.348816,-1.330667 -0.335896,-0.452168 -1.020608,-0.452168 -1.614886,0 -2.790524,3.048906 -1.162718,3.035986 -1.162718,5.348504 z"
         id="path2771" />
      <path
         d="m 103.08777,63.493658 -0.18087,0.56844 h -1.93786 l -1.705324,5.645643 q -0.85266,2.777605 -0.85266,3.229773 0,0.310058 0.129191,0.478007 0.14211,0.155029 0.400492,0.155029 0.465087,0 1.214391,-0.878499 0.74931,-0.878498 1.34359,-2.209164 h 0.56844 q -0.78807,1.924944 -1.80867,2.945553 -1.007693,1.007689 -1.847434,1.007689 -0.658874,0 -1.059366,-0.465088 -0.387572,-0.465087 -0.387572,-1.175637 0,-0.607197 0.800983,-3.229773 l 1.666563,-5.503533 h -1.782835 l 0.180868,-0.56844 h 1.769915 l 1.188558,-3.914485 h 1.55029 l -1.18856,3.914485 z"
         id="path2773" />
    </g>
    <g
       aria-label="ale"
       id="text531"
       style="font-style:italic;font-size:26.4583px;font-family:Baskerville;-inkscape-font-specification:'Baskerville, Italic';fill:#efcee2;stroke-width:0.264583">
      <path
         d="m 75.974374,81.781109 h 1.550291 l -2.299598,7.570587 q -0.503845,1.640725 -0.503845,1.98954 0,0.258382 0.116272,0.400492 0.116272,0.129191 0.348816,0.129191 0.891417,0 2.054135,-2.041216 h 0.542602 q -0.503845,1.162718 -1.446938,2.118731 -0.930175,0.943093 -1.718239,0.943093 -0.607198,0 -0.930175,-0.452168 -0.322977,-0.452168 -0.322977,-1.111042 0,-0.529682 0.258381,-1.382343 -0.581359,0.994771 -1.692401,1.976621 -1.098122,0.968932 -2.067054,0.968932 -0.904337,0 -1.56321,-0.762226 -0.645955,-0.775146 -0.645955,-2.079974 0,-1.756996 1.007689,-3.759455 1.007689,-2.015379 2.622576,-3.358964 1.627805,-1.343586 2.777605,-1.343586 0.671792,0 1.059365,0.322977 0.400492,0.322978 0.529683,0.968932 z M 69.217689,90.4369 q 0,0.85266 0.258382,1.291909 0.258382,0.42633 0.775146,0.42633 0.85266,0 2.041216,-1.253152 1.201476,-1.253152 2.079974,-3.83697 0.878498,-2.583818 0.878498,-3.513993 0,-0.542602 -0.28422,-0.917255 -0.271301,-0.387573 -0.788065,-0.387573 -1.576129,0 -3.26853,3.113501 -1.692401,3.113501 -1.692401,5.077203 z"
         id="path2776" />
      <path
         d="m 83.557881,89.429211 h 0.56844 q -1.317747,3.462316 -3.384802,3.462316 -0.71055,0 -1.13688,-0.465087 -0.42633,-0.478006 -0.42633,-1.188556 0,-0.697631 0.839741,-3.449398 l 3.023067,-9.973539 q 0.387573,-1.266071 0.387573,-1.472776 0,-0.310058 -0.180867,-0.439249 -0.167948,-0.129191 -0.865579,-0.129191 h -0.503845 l 0.167948,-0.542602 q 2.13165,-0.03876 3.13934,-0.465087 h 0.322977 l -4.159948,13.694237 q -0.09043,0.322977 -0.374653,1.175637 -0.374654,1.123961 -0.374654,1.70532 0,0.387573 0.14211,0.581359 0.155029,0.193787 0.452168,0.193787 0.439249,0 1.098123,-0.607197 0.658874,-0.607198 1.266071,-2.079974 z"
         id="path2778" />
      <path
         d="m 90.870086,89.235424 h 0.620116 q -1.640724,3.656103 -4.211623,3.656103 -1.059366,0 -1.731159,-0.736388 -0.658873,-0.749307 -0.658873,-2.015378 0,-1.601968 0.85266,-3.617346 0.865579,-2.015378 2.441708,-3.475235 1.589048,-1.459858 2.764686,-1.459858 0.723469,0 1.098122,0.465087 0.374654,0.452169 0.374654,1.136881 0,1.395261 -1.395262,2.687171 -1.395262,1.27899 -4.185786,2.467546 -0.361734,1.123961 -0.361734,2.13165 0,0.826822 0.322977,1.240233 0.322977,0.413411 0.956013,0.413411 1.769915,0 3.113501,-2.893877 z m -3.83697,-1.550291 q 1.666563,-0.749307 2.997229,-2.067054 1.330666,-1.317748 1.330666,-2.390032 0,-0.490926 -0.206705,-0.723469 -0.193786,-0.245463 -0.594278,-0.245463 -0.775146,0 -1.834511,1.511534 -1.046447,1.498614 -1.692401,3.914484 z"
         id="path2780" />
    </g>
  </g>
</svg>
